<?xml version="1.0" encoding="UTF-8" standalone="no"?>
<!DOCTYPE svg PUBLIC "-//W3C//DTD SVG 20010904//EN"
              "http://www.w3.org/TR/2001/REC-SVG-20010904/DTD/svg10.dtd">

<svg xmlns="http://www.w3.org/2000/svg"
     width="300px" height="300px"
     viewBox="0 0 600 600">
  <defs>
   <linearGradient id="gradient" x1="0" x2="0" y1="0" y2="1">
     <stop offset="0%"   stop-color="#be54d1" stop-opacity="1"/>
     <stop offset="100%" stop-color="pink" stop-opacity="1" />
   </linearGradient>
  </defs>
  <circle cx="300" cy="300" r="300" fill="url(#gradient)"></circle>
  
  <path id="Selection" transform="translate(-100,0)"
        fill="#FFFFFF" stroke="pink" stroke-width="1"
        d="M 247.82,301.64
           C 247.82,301.64 267.27,301.64 267.27,301.64
             267.27,301.64 267.64,296.36 267.64,296.36
             267.64,296.36 268.36,248.73 268.36,248.73
             268.41,216.23 269.64,184.91 277.00,153.00
             281.12,133.07 287.14,112.22 298.34,95.00
             303.68,86.80 310.48,78.61 318.00,72.32
             365.38,32.69 450.26,38.82 487.26,90.00
             509.65,120.99 516.44,163.74 520.17,201.00
             520.17,201.00 522.09,228.00 522.09,228.00
             522.09,228.00 523.00,238.00 523.00,238.00
             523.00,238.00 524.25,298.75 524.25,298.75
             524.25,302.54 524.75,304.00 525.00,305.00
             529.00,306.25 532.52,305.11 535.75,305.50
             535.75,305.50 543.75,305.25 543.75,305.25
             543.75,305.25 544.25,299.25 544.25,299.25
             544.25,299.25 544.00,254.00 544.00,254.00
             543.96,226.51 541.64,197.19 537.42,170.00
             533.19,142.72 525.77,111.90 511.55,88.00
             502.63,73.01 488.99,59.24 474.50,49.50
             455.25,39.00 453.00,35.75 431.00,28.50
             431.00,28.50 399.00,25.00 399.00,25.00
             392.74,25.01 374.15,26.90 368.00,27.92
             333.28,33.67 301.71,51.26 282.00,81.00
             265.64,105.70 258.66,133.90 254.36,162.91
             254.36,162.91 250.36,193.27 250.36,193.27
             250.36,193.27 248.36,227.82 248.36,227.82
             248.36,227.82 248.00,259.00 248.00,259.00
             248.00,259.00 247.27,296.00 247.27,296.00
             247.27,296.00 247.82,301.64 247.82,301.64 Z
           M 378.18,196.55
           C 382.82,198.68 385.97,199.93 391.00,199.99
             407.35,200.19 417.70,192.33 425.22,178.00
             436.47,156.52 436.23,123.23 422.23,103.00
             418.29,97.31 420.18,100.18 413.09,93.45
             402.91,86.91 387.45,81.27 373.82,92.73
             368.73,97.45 365.45,100.91 361.09,108.36
             356.15,117.78 353.02,128.38 353.00,139.00
             353.45,156.18 355.10,171.12 366.36,185.82
             373.27,193.09 374.36,194.36 378.18,196.55 Z
           M 250.25,324.25
           C 251.76,330.89 252.02,331.87 254.73,338.18
             255.71,340.48 258.98,350.37 261.39,351.41
             265.62,353.26 263.55,351.81 268.18,350.55
             268.18,350.55 337.09,327.09 337.09,327.09
             337.09,327.09 347.25,322.50 347.25,322.50
             347.25,322.50 347.00,331.00 347.00,331.00
             347.00,331.00 345.50,407.25 345.50,407.25
             345.50,407.25 344.00,491.00 344.00,491.00
             344.00,491.00 344.25,493.00 344.50,496.00
             346.75,498.25 363.30,498.22 366.00,498.25
             371.85,498.32 377.25,497.50 382.50,497.00
             383.75,492.75 383.49,494.29 383.50,491.00
             383.50,491.00 383.75,418.25 383.75,418.25
             383.75,418.25 392.00,418.00 392.00,418.00
             392.00,418.00 390.25,563.50 390.25,563.50
             390.25,563.50 390.25,570.50 390.25,570.50
             390.25,570.50 411.25,571.75 411.25,571.75
             411.25,571.75 428.50,570.50 428.50,570.50
             428.50,570.50 428.74,573.52 428.75,564.25
             428.75,564.25 433.50,330.25 433.50,330.25
             433.43,324.51 433.50,328.50 433.50,322.75
             433.50,322.75 441.50,326.50 441.50,326.50
             441.50,326.50 510.25,356.75 510.25,356.75
             510.25,356.75 518.25,359.25 518.25,359.25
             523.00,352.50 523.00,352.50 525.50,348.25
             526.68,345.44 531.00,338.25 532.00,334.75
             528.75,331.75 529.66,332.58 525.50,330.50
             525.50,330.50 460.54,295.56 456.18,293.45
             454.93,287.20 447.64,218.00 446.18,213.45
             440.73,211.27 414.69,212.00 413.09,212.73
             410.51,213.90 411.16,218.00 408.73,220.91
             405.32,224.99 402.91,228.00 393.09,228.18
             381.45,228.00 379.06,223.44 376.00,220.91
             373.45,217.45 372.73,214.36 370.36,213.27
             368.00,212.91 345.82,213.45 340.18,213.64
             339.36,214.38 332.73,274.18 328.00,290.36
             319.27,295.27 255.45,321.82 255.45,321.82
             255.45,321.82 250.25,324.25 250.25,324.25 Z
           M 533.75,334.75" />
</svg>
